<?xml version="1.0" standalone="no"?>
<!DOCTYPE svg PUBLIC "-//W3C//DTD SVG 20010904//EN"
 "http://www.w3.org/TR/2001/REC-SVG-20010904/DTD/svg10.dtd">
<svg version="1.0" xmlns="http://www.w3.org/2000/svg"
 width="180.000000pt" height="24.000000pt" viewBox="0 0 180.000000 24.000000"
 preserveAspectRatio="xMidYMid meet">
<metadata>
Created by potrace 1.16, written by Peter Selinger 2001-2019
</metadata>
<g transform="translate(0.000000,24.000000) scale(0.100000,-0.100000)"
fill="#000000" stroke="none">
<path d="M10 125 c0 -58 0 -108 0 -112 0 -5 48 -8 108 -8 l107 0 3 113 3 112
-111 0 -110 0 0 -105z"/>
<path d="M340 122 c0 -60 3 -111 6 -115 17 -17 34 8 34 50 l0 44 53 -3 52 -3
3 -40 c3 -38 18 -59 34 -49 4 3 8 55 8 115 0 100 -2 110 -17 107 -13 -2 -19
-15 -21 -46 l-3 -42 -54 0 -54 0 -3 42 c-2 31 -8 44 -20 46 -16 3 -18 -7 -18
-106z"/>
<path d="M641 208 c-5 -13 -25 -60 -45 -105 -36 -82 -42 -103 -28 -103 18 1
32 20 58 80 15 36 30 69 34 73 4 4 23 -28 43 -73 23 -50 42 -80 52 -80 22 0
19 15 -30 125 -45 103 -68 125 -84 83z"/>
<path d="M800 122 c0 -60 3 -111 6 -115 13 -13 34 7 34 31 0 19 13 37 42 63
l43 37 32 -69 c19 -42 38 -69 47 -69 22 0 20 8 -14 85 -16 37 -30 72 -30 78 0
6 15 23 33 38 l32 28 -28 1 c-21 0 -45 -15 -90 -56 l-62 -56 -5 54 c-4 40 -9
54 -22 56 -16 3 -18 -7 -18 -106z"/>
<path d="M1081 216 c-33 -18 -50 -53 -51 -102 0 -98 116 -146 185 -76 92 92
-20 241 -134 178z m109 -46 c30 -30 27 -83 -6 -109 -15 -12 -33 -21 -40 -21
-26 0 -62 23 -73 47 -16 34 -14 47 10 77 26 33 79 36 109 6z"/>
<path d="M1296 128 c57 -131 67 -141 89 -98 18 35 85 189 85 196 0 2 -8 4 -18
4 -13 0 -28 -21 -51 -75 -18 -41 -36 -75 -40 -75 -3 0 -20 33 -36 73 -23 55
-36 73 -52 75 -21 3 -20 -3 23 -100z"/>
<path d="M1535 218 c-37 -20 -55 -51 -55 -99 0 -56 26 -94 74 -108 49 -13 82
-3 117 37 28 31 31 40 26 81 -9 80 -94 127 -162 89z m106 -49 c14 -14 19 -30
17 -56 -6 -74 -100 -97 -133 -33 -20 38 -19 52 6 84 26 33 79 36 110 5z"/>
</g>
</svg>
